<mxfile host="Electron" modified="2023-12-06T20:37:02.427Z" agent="Mozilla/5.0 (Macintosh; Intel Mac OS X 10_15_7) AppleWebKit/537.36 (KHTML, like Gecko) draw.io/22.1.2 Chrome/114.0.5735.289 Electron/25.9.4 Safari/537.36" etag="2pfs3wNNe7Z9wdN9C2ZO" version="22.1.2" type="device">
  <diagram name="Page-1" id="O8UbEwhGiegyHcIipbOr">
    <mxGraphModel dx="1266" dy="743" grid="1" gridSize="10" guides="1" tooltips="1" connect="1" arrows="1" fold="1" page="1" pageScale="1" pageWidth="827" pageHeight="1169" math="0" shadow="0">
      <root>
        <mxCell id="0" />
        <mxCell id="1" parent="0" />
        <mxCell id="rrm68BXSd8MwJ9Ru9RYK-1" value="Class" style="swimlane;fontStyle=0;childLayout=stackLayout;horizontal=1;startSize=30;horizontalStack=0;resizeParent=1;resizeParentMax=0;resizeLast=0;collapsible=1;marginBottom=0;whiteSpace=wrap;html=1;" vertex="1" parent="1">
          <mxGeometry x="40" y="40" width="120" height="90" as="geometry" />
        </mxCell>
        <mxCell id="rrm68BXSd8MwJ9Ru9RYK-2" value="&lt;u&gt;problemId&lt;/u&gt;" style="text;strokeColor=none;fillColor=none;align=left;verticalAlign=middle;spacingLeft=4;spacingRight=4;overflow=hidden;points=[[0,0.5],[1,0.5]];portConstraint=eastwest;rotatable=0;whiteSpace=wrap;html=1;" vertex="1" parent="rrm68BXSd8MwJ9Ru9RYK-1">
          <mxGeometry y="30" width="120" height="30" as="geometry" />
        </mxCell>
        <mxCell id="rrm68BXSd8MwJ9Ru9RYK-3" value="class" style="text;strokeColor=none;fillColor=none;align=left;verticalAlign=middle;spacingLeft=4;spacingRight=4;overflow=hidden;points=[[0,0.5],[1,0.5]];portConstraint=eastwest;rotatable=0;whiteSpace=wrap;html=1;" vertex="1" parent="rrm68BXSd8MwJ9Ru9RYK-1">
          <mxGeometry y="60" width="120" height="30" as="geometry" />
        </mxCell>
        <mxCell id="rrm68BXSd8MwJ9Ru9RYK-5" value="Square" style="swimlane;fontStyle=0;childLayout=stackLayout;horizontal=1;startSize=30;horizontalStack=0;resizeParent=1;resizeParentMax=0;resizeLast=0;collapsible=1;marginBottom=0;whiteSpace=wrap;html=1;" vertex="1" parent="1">
          <mxGeometry x="200" y="40" width="120" height="90" as="geometry" />
        </mxCell>
        <mxCell id="rrm68BXSd8MwJ9Ru9RYK-6" value="problemId" style="text;strokeColor=none;fillColor=none;align=left;verticalAlign=middle;spacingLeft=4;spacingRight=4;overflow=hidden;points=[[0,0.5],[1,0.5]];portConstraint=eastwest;rotatable=0;whiteSpace=wrap;html=1;" vertex="1" parent="rrm68BXSd8MwJ9Ru9RYK-5">
          <mxGeometry y="30" width="120" height="30" as="geometry" />
        </mxCell>
        <mxCell id="rrm68BXSd8MwJ9Ru9RYK-7" value="objectId" style="text;strokeColor=none;fillColor=none;align=left;verticalAlign=middle;spacingLeft=4;spacingRight=4;overflow=hidden;points=[[0,0.5],[1,0.5]];portConstraint=eastwest;rotatable=0;whiteSpace=wrap;html=1;" vertex="1" parent="rrm68BXSd8MwJ9Ru9RYK-5">
          <mxGeometry y="60" width="120" height="30" as="geometry" />
        </mxCell>
        <mxCell id="rrm68BXSd8MwJ9Ru9RYK-8" value="Config" style="swimlane;fontStyle=0;childLayout=stackLayout;horizontal=1;startSize=30;horizontalStack=0;resizeParent=1;resizeParentMax=0;resizeLast=0;collapsible=1;marginBottom=0;whiteSpace=wrap;html=1;" vertex="1" parent="1">
          <mxGeometry x="360" y="230" width="120" height="120" as="geometry" />
        </mxCell>
        <mxCell id="rrm68BXSd8MwJ9Ru9RYK-9" value="problemId" style="text;strokeColor=none;fillColor=none;align=left;verticalAlign=middle;spacingLeft=4;spacingRight=4;overflow=hidden;points=[[0,0.5],[1,0.5]];portConstraint=eastwest;rotatable=0;whiteSpace=wrap;html=1;" vertex="1" parent="rrm68BXSd8MwJ9Ru9RYK-8">
          <mxGeometry y="30" width="120" height="30" as="geometry" />
        </mxCell>
        <mxCell id="rrm68BXSd8MwJ9Ru9RYK-10" value="objectId" style="text;strokeColor=none;fillColor=none;align=left;verticalAlign=middle;spacingLeft=4;spacingRight=4;overflow=hidden;points=[[0,0.5],[1,0.5]];portConstraint=eastwest;rotatable=0;whiteSpace=wrap;html=1;" vertex="1" parent="rrm68BXSd8MwJ9Ru9RYK-8">
          <mxGeometry y="60" width="120" height="30" as="geometry" />
        </mxCell>
        <mxCell id="rrm68BXSd8MwJ9Ru9RYK-11" value="orient" style="text;strokeColor=none;fillColor=none;align=left;verticalAlign=middle;spacingLeft=4;spacingRight=4;overflow=hidden;points=[[0,0.5],[1,0.5]];portConstraint=eastwest;rotatable=0;whiteSpace=wrap;html=1;" vertex="1" parent="rrm68BXSd8MwJ9Ru9RYK-8">
          <mxGeometry y="90" width="120" height="30" as="geometry" />
        </mxCell>
        <mxCell id="rrm68BXSd8MwJ9Ru9RYK-12" value="in" style="swimlane;fontStyle=0;childLayout=stackLayout;horizontal=1;startSize=30;horizontalStack=0;resizeParent=1;resizeParentMax=0;resizeLast=0;collapsible=1;marginBottom=0;whiteSpace=wrap;html=1;" vertex="1" parent="1">
          <mxGeometry x="360" y="40" width="120" height="120" as="geometry" />
        </mxCell>
        <mxCell id="rrm68BXSd8MwJ9Ru9RYK-13" value="problemId" style="text;strokeColor=none;fillColor=none;align=left;verticalAlign=middle;spacingLeft=4;spacingRight=4;overflow=hidden;points=[[0,0.5],[1,0.5]];portConstraint=eastwest;rotatable=0;whiteSpace=wrap;html=1;" vertex="1" parent="rrm68BXSd8MwJ9Ru9RYK-12">
          <mxGeometry y="30" width="120" height="30" as="geometry" />
        </mxCell>
        <mxCell id="rrm68BXSd8MwJ9Ru9RYK-14" value="objectId1" style="text;strokeColor=none;fillColor=none;align=left;verticalAlign=middle;spacingLeft=4;spacingRight=4;overflow=hidden;points=[[0,0.5],[1,0.5]];portConstraint=eastwest;rotatable=0;whiteSpace=wrap;html=1;" vertex="1" parent="rrm68BXSd8MwJ9Ru9RYK-12">
          <mxGeometry y="60" width="120" height="30" as="geometry" />
        </mxCell>
        <mxCell id="rrm68BXSd8MwJ9Ru9RYK-15" value="objectId2" style="text;strokeColor=none;fillColor=none;align=left;verticalAlign=middle;spacingLeft=4;spacingRight=4;overflow=hidden;points=[[0,0.5],[1,0.5]];portConstraint=eastwest;rotatable=0;whiteSpace=wrap;html=1;" vertex="1" parent="rrm68BXSd8MwJ9Ru9RYK-12">
          <mxGeometry y="90" width="120" height="30" as="geometry" />
        </mxCell>
        <mxCell id="rrm68BXSd8MwJ9Ru9RYK-16" value="Circle" style="swimlane;fontStyle=0;childLayout=stackLayout;horizontal=1;startSize=30;horizontalStack=0;resizeParent=1;resizeParentMax=0;resizeLast=0;collapsible=1;marginBottom=0;whiteSpace=wrap;html=1;" vertex="1" parent="1">
          <mxGeometry x="200" y="150" width="120" height="90" as="geometry" />
        </mxCell>
        <mxCell id="rrm68BXSd8MwJ9Ru9RYK-17" value="problemId" style="text;strokeColor=none;fillColor=none;align=left;verticalAlign=middle;spacingLeft=4;spacingRight=4;overflow=hidden;points=[[0,0.5],[1,0.5]];portConstraint=eastwest;rotatable=0;whiteSpace=wrap;html=1;" vertex="1" parent="rrm68BXSd8MwJ9Ru9RYK-16">
          <mxGeometry y="30" width="120" height="30" as="geometry" />
        </mxCell>
        <mxCell id="rrm68BXSd8MwJ9Ru9RYK-18" value="objectId" style="text;strokeColor=none;fillColor=none;align=left;verticalAlign=middle;spacingLeft=4;spacingRight=4;overflow=hidden;points=[[0,0.5],[1,0.5]];portConstraint=eastwest;rotatable=0;whiteSpace=wrap;html=1;" vertex="1" parent="rrm68BXSd8MwJ9Ru9RYK-16">
          <mxGeometry y="60" width="120" height="30" as="geometry" />
        </mxCell>
        <mxCell id="rrm68BXSd8MwJ9Ru9RYK-19" value="Triangle" style="swimlane;fontStyle=0;childLayout=stackLayout;horizontal=1;startSize=30;horizontalStack=0;resizeParent=1;resizeParentMax=0;resizeLast=0;collapsible=1;marginBottom=0;whiteSpace=wrap;html=1;" vertex="1" parent="1">
          <mxGeometry x="200" y="260" width="120" height="90" as="geometry" />
        </mxCell>
        <mxCell id="rrm68BXSd8MwJ9Ru9RYK-20" value="problemId" style="text;strokeColor=none;fillColor=none;align=left;verticalAlign=middle;spacingLeft=4;spacingRight=4;overflow=hidden;points=[[0,0.5],[1,0.5]];portConstraint=eastwest;rotatable=0;whiteSpace=wrap;html=1;" vertex="1" parent="rrm68BXSd8MwJ9Ru9RYK-19">
          <mxGeometry y="30" width="120" height="30" as="geometry" />
        </mxCell>
        <mxCell id="rrm68BXSd8MwJ9Ru9RYK-21" value="objectId" style="text;strokeColor=none;fillColor=none;align=left;verticalAlign=middle;spacingLeft=4;spacingRight=4;overflow=hidden;points=[[0,0.5],[1,0.5]];portConstraint=eastwest;rotatable=0;whiteSpace=wrap;html=1;" vertex="1" parent="rrm68BXSd8MwJ9Ru9RYK-19">
          <mxGeometry y="60" width="120" height="30" as="geometry" />
        </mxCell>
        <mxCell id="rrm68BXSd8MwJ9Ru9RYK-25" style="edgeStyle=orthogonalEdgeStyle;rounded=0;orthogonalLoop=1;jettySize=auto;html=1;entryX=0;entryY=0.5;entryDx=0;entryDy=0;" edge="1" parent="1" source="rrm68BXSd8MwJ9Ru9RYK-21" target="rrm68BXSd8MwJ9Ru9RYK-10">
          <mxGeometry relative="1" as="geometry" />
        </mxCell>
        <mxCell id="rrm68BXSd8MwJ9Ru9RYK-26" style="edgeStyle=orthogonalEdgeStyle;rounded=0;orthogonalLoop=1;jettySize=auto;html=1;entryX=0;entryY=0.5;entryDx=0;entryDy=0;" edge="1" parent="1" source="rrm68BXSd8MwJ9Ru9RYK-2" target="rrm68BXSd8MwJ9Ru9RYK-6">
          <mxGeometry relative="1" as="geometry" />
        </mxCell>
        <mxCell id="rrm68BXSd8MwJ9Ru9RYK-27" style="edgeStyle=orthogonalEdgeStyle;rounded=0;orthogonalLoop=1;jettySize=auto;html=1;entryX=0;entryY=0.5;entryDx=0;entryDy=0;" edge="1" parent="1" source="rrm68BXSd8MwJ9Ru9RYK-2" target="rrm68BXSd8MwJ9Ru9RYK-17">
          <mxGeometry relative="1" as="geometry" />
        </mxCell>
        <mxCell id="rrm68BXSd8MwJ9Ru9RYK-28" style="edgeStyle=orthogonalEdgeStyle;rounded=0;orthogonalLoop=1;jettySize=auto;html=1;entryX=0;entryY=0.5;entryDx=0;entryDy=0;" edge="1" parent="1" source="rrm68BXSd8MwJ9Ru9RYK-2" target="rrm68BXSd8MwJ9Ru9RYK-20">
          <mxGeometry relative="1" as="geometry" />
        </mxCell>
        <mxCell id="rrm68BXSd8MwJ9Ru9RYK-29" style="edgeStyle=orthogonalEdgeStyle;rounded=0;orthogonalLoop=1;jettySize=auto;html=1;entryX=0;entryY=0.5;entryDx=0;entryDy=0;" edge="1" parent="1" source="rrm68BXSd8MwJ9Ru9RYK-2" target="rrm68BXSd8MwJ9Ru9RYK-13">
          <mxGeometry relative="1" as="geometry">
            <Array as="points">
              <mxPoint x="180" y="85" />
              <mxPoint x="180" y="140" />
              <mxPoint x="340" y="140" />
              <mxPoint x="340" y="85" />
            </Array>
          </mxGeometry>
        </mxCell>
        <mxCell id="rrm68BXSd8MwJ9Ru9RYK-30" style="edgeStyle=orthogonalEdgeStyle;rounded=0;orthogonalLoop=1;jettySize=auto;html=1;entryX=0;entryY=0.5;entryDx=0;entryDy=0;" edge="1" parent="1" source="rrm68BXSd8MwJ9Ru9RYK-2" target="rrm68BXSd8MwJ9Ru9RYK-9">
          <mxGeometry relative="1" as="geometry">
            <Array as="points">
              <mxPoint x="180" y="85" />
              <mxPoint x="180" y="140" />
              <mxPoint x="340" y="140" />
              <mxPoint x="340" y="275" />
            </Array>
          </mxGeometry>
        </mxCell>
      </root>
    </mxGraphModel>
  </diagram>
</mxfile>
